<mxfile host="app.diagrams.net" modified="2023-11-30T06:16:54.547Z" agent="Mozilla/5.0 (X11; Linux x86_64) AppleWebKit/537.36 (KHTML, like Gecko) Chrome/119.0.0.0 Safari/537.36" etag="s7vjt-On6ErTt7De7ZM4" version="22.1.5" type="github">
  <diagram id="C5RBs43oDa-KdzZeNtuy" name="Page-1">
    <mxGraphModel dx="1434" dy="726" grid="1" gridSize="10" guides="1" tooltips="1" connect="1" arrows="1" fold="1" page="1" pageScale="1" pageWidth="827" pageHeight="1169" math="0" shadow="0">
      <root>
        <mxCell id="WIyWlLk6GJQsqaUBKTNV-0" />
        <mxCell id="WIyWlLk6GJQsqaUBKTNV-1" parent="WIyWlLk6GJQsqaUBKTNV-0" />
        <mxCell id="sTumBra5vFcS5-0TeWv8-1" value="" style="swimlane;startSize=0;" vertex="1" parent="WIyWlLk6GJQsqaUBKTNV-1">
          <mxGeometry x="482.5" y="50" width="200" height="50" as="geometry" />
        </mxCell>
        <mxCell id="sTumBra5vFcS5-0TeWv8-2" value="Image Input" style="text;html=1;align=center;verticalAlign=middle;resizable=0;points=[];autosize=1;strokeColor=none;fillColor=none;fontSize=27;" vertex="1" parent="sTumBra5vFcS5-0TeWv8-1">
          <mxGeometry x="15" width="170" height="50" as="geometry" />
        </mxCell>
        <mxCell id="sTumBra5vFcS5-0TeWv8-3" style="edgeStyle=orthogonalEdgeStyle;rounded=0;orthogonalLoop=1;jettySize=auto;html=1;exitX=0.5;exitY=1;exitDx=0;exitDy=0;" edge="1" parent="WIyWlLk6GJQsqaUBKTNV-1" source="sTumBra5vFcS5-0TeWv8-1" target="sTumBra5vFcS5-0TeWv8-1">
          <mxGeometry relative="1" as="geometry" />
        </mxCell>
        <mxCell id="sTumBra5vFcS5-0TeWv8-4" value="" style="endArrow=classic;html=1;rounded=0;exitX=0.5;exitY=0;exitDx=0;exitDy=0;entryX=0.5;entryY=0;entryDx=0;entryDy=0;" edge="1" parent="WIyWlLk6GJQsqaUBKTNV-1">
          <mxGeometry width="50" height="50" relative="1" as="geometry">
            <mxPoint x="600.63" y="340" as="sourcePoint" />
            <mxPoint x="600.63" y="340" as="targetPoint" />
            <Array as="points">
              <mxPoint x="586.88" y="110" />
            </Array>
          </mxGeometry>
        </mxCell>
        <mxCell id="sTumBra5vFcS5-0TeWv8-5" value="" style="swimlane;startSize=0;" vertex="1" parent="WIyWlLk6GJQsqaUBKTNV-1">
          <mxGeometry x="390" y="340" width="407.5" height="70" as="geometry" />
        </mxCell>
        <mxCell id="sTumBra5vFcS5-0TeWv8-6" value="DETECT IMAGES IS RECEIPT OR NOT&amp;nbsp;&lt;br&gt;USING OPENCV" style="text;html=1;align=center;verticalAlign=middle;resizable=0;points=[];autosize=1;strokeColor=none;fillColor=none;fontSize=21;" vertex="1" parent="sTumBra5vFcS5-0TeWv8-5">
          <mxGeometry x="-2.5" y="10" width="410" height="60" as="geometry" />
        </mxCell>
        <mxCell id="sTumBra5vFcS5-0TeWv8-7" value="" style="swimlane;startSize=0;" vertex="1" parent="WIyWlLk6GJQsqaUBKTNV-1">
          <mxGeometry x="80" y="480" width="295" height="90" as="geometry" />
        </mxCell>
        <mxCell id="sTumBra5vFcS5-0TeWv8-8" value="HTTP/1.1 400 Bad Request&lt;br&gt;&quot;message&quot;: &quot;The provided images&lt;br&gt;is not a valid format&quot;" style="text;html=1;align=center;verticalAlign=middle;resizable=0;points=[];autosize=1;strokeColor=none;fillColor=none;fontSize=19;" vertex="1" parent="sTumBra5vFcS5-0TeWv8-7">
          <mxGeometry x="-7.5" y="10" width="310" height="80" as="geometry" />
        </mxCell>
        <mxCell id="sTumBra5vFcS5-0TeWv8-9" value="" style="endArrow=classic;html=1;rounded=0;entryX=1;entryY=0.5;entryDx=0;entryDy=0;exitX=-0.005;exitY=0.4;exitDx=0;exitDy=0;exitPerimeter=0;" edge="1" parent="WIyWlLk6GJQsqaUBKTNV-1" source="sTumBra5vFcS5-0TeWv8-6" target="sTumBra5vFcS5-0TeWv8-7">
          <mxGeometry width="50" height="50" relative="1" as="geometry">
            <mxPoint x="440" y="320" as="sourcePoint" />
            <mxPoint x="490" y="270" as="targetPoint" />
            <Array as="points" />
          </mxGeometry>
        </mxCell>
        <mxCell id="sTumBra5vFcS5-0TeWv8-10" value="IF NOT RECIEPT&lt;br style=&quot;font-size: 12px;&quot;&gt;" style="text;html=1;align=center;verticalAlign=middle;resizable=0;points=[];autosize=1;strokeColor=none;fillColor=none;fontSize=12;" vertex="1" parent="WIyWlLk6GJQsqaUBKTNV-1">
          <mxGeometry x="310" y="430" width="120" height="30" as="geometry" />
        </mxCell>
        <mxCell id="sTumBra5vFcS5-0TeWv8-11" value="" style="swimlane;startSize=0;" vertex="1" parent="WIyWlLk6GJQsqaUBKTNV-1">
          <mxGeometry x="487.5" y="500" width="210" height="55" as="geometry" />
        </mxCell>
        <mxCell id="sTumBra5vFcS5-0TeWv8-12" value="HTTP/1.1 200 OK&lt;br style=&quot;border-color: var(--border-color); font-size: 20px;&quot;&gt;" style="text;html=1;align=center;verticalAlign=middle;resizable=0;points=[];autosize=1;strokeColor=none;fillColor=none;fontSize=20;" vertex="1" parent="sTumBra5vFcS5-0TeWv8-11">
          <mxGeometry x="15" y="7.5" width="180" height="40" as="geometry" />
        </mxCell>
        <mxCell id="sTumBra5vFcS5-0TeWv8-13" value="IF A RECIEPT" style="text;html=1;align=center;verticalAlign=middle;resizable=0;points=[];autosize=1;strokeColor=none;fillColor=none;fontSize=12;" vertex="1" parent="WIyWlLk6GJQsqaUBKTNV-1">
          <mxGeometry x="590" y="440" width="100" height="30" as="geometry" />
        </mxCell>
        <mxCell id="sTumBra5vFcS5-0TeWv8-14" value="" style="endArrow=classic;html=1;rounded=0;entryX=0.5;entryY=0;entryDx=0;entryDy=0;exitX=0.5;exitY=1;exitDx=0;exitDy=0;" edge="1" parent="WIyWlLk6GJQsqaUBKTNV-1" source="sTumBra5vFcS5-0TeWv8-5" target="sTumBra5vFcS5-0TeWv8-11">
          <mxGeometry width="50" height="50" relative="1" as="geometry">
            <mxPoint x="403" y="410" as="sourcePoint" />
            <mxPoint x="260" y="436" as="targetPoint" />
            <Array as="points" />
          </mxGeometry>
        </mxCell>
        <mxCell id="sTumBra5vFcS5-0TeWv8-15" value="" style="swimlane;startSize=0;" vertex="1" parent="WIyWlLk6GJQsqaUBKTNV-1">
          <mxGeometry x="430" y="640" width="325" height="60" as="geometry" />
        </mxCell>
        <mxCell id="sTumBra5vFcS5-0TeWv8-17" value="EXTRACT DATA FROM RECEIPT" style="text;html=1;align=center;verticalAlign=middle;resizable=0;points=[];autosize=1;strokeColor=none;fillColor=none;fontSize=20;" vertex="1" parent="sTumBra5vFcS5-0TeWv8-15">
          <mxGeometry x="-5" y="20" width="330" height="40" as="geometry" />
        </mxCell>
        <mxCell id="sTumBra5vFcS5-0TeWv8-18" value="" style="endArrow=classic;html=1;rounded=0;entryX=0.5;entryY=0;entryDx=0;entryDy=0;exitX=0.5;exitY=1;exitDx=0;exitDy=0;" edge="1" parent="WIyWlLk6GJQsqaUBKTNV-1">
          <mxGeometry width="50" height="50" relative="1" as="geometry">
            <mxPoint x="602.75" y="550" as="sourcePoint" />
            <mxPoint x="602.75" y="640" as="targetPoint" />
            <Array as="points" />
          </mxGeometry>
        </mxCell>
      </root>
    </mxGraphModel>
  </diagram>
</mxfile>
